<svg xmlns="http://www.w3.org/2000/svg" viewBox="0 0 128 128" fill="none"><defs><linearGradient id="bg" x1="8" y1="2" x2="118" y2="126" gradientUnits="userSpaceOnUse"><stop stop-color="#e5b27e"/><stop offset="1" stop-color="#70452f"/></linearGradient></defs><circle cx="64" cy="64" r="64" fill="url(#bg)"/><path d="M17 128c5-27 20-39 47-39s42 12 47 39H17Z" fill="#29323A"/><path d="M40 60c-6-29 5-45 25-45 21 0 31 15 25 45L83 88H45l-5-28Z" fill="#47352D"/><ellipse cx="64" cy="57" rx="23" ry="28" fill="#D9A17E"/><path d="M40 50c0-24 10-36 27-36 16 0 26 12 22 34l-12-11-13 4-24 9Z" fill="#53382E"/><path d="M50 57h4m20 0h4" stroke="#4E352D" stroke-width="3" stroke-linecap="round"/><path d="M58 72c4 3 8 3 12 0" stroke="#995D56" stroke-width="2.5" stroke-linecap="round"/></svg>
